<svg width="1000" height="1000" viewBox="0 0 1000 1000" xmlns="http://www.w3.org/2000/svg"><defs/><path fill="#447abe" transform="matrix(1.5855200480315066 0 0 1.5855200480315066 -12.068311250186964 -64.05589325464683)" d="M 299.46552281754 401.10674023038 C 296.96552281754 396.90674023038 294.36552281754 392.80674023038 291.66552281754 388.80674023038 C 286.16552281754 380.80674023038 280.26552281754 373.10674023038 273.96552281754 365.60674023038 C 261.36552281754 350.80674023038 247.36552281754 337.10674023038 232.36552281754 324.60674023038 C 217.36552281754 312.10674023038 201.36552281754 300.70674023038 184.76552281754 290.40674023038 C 172.96552281754 283.10674023038 160.76552281754 276.40674023038 148.36552281754 270.20674023038 C 149.16552281754 269.20674023038 150.06552281754 268.30674023038 150.86552281754 267.30674023038 C 155.36552281754 262.10674023038 159.96552281754 257.00674023038 164.56552281754 251.80674023038 C 173.76552281754 241.50674023038 183.06552281754 231.40674023038 192.46552281754 221.30674023038 C 201.86552281754 211.30674023038 211.46552281754 201.40674023038 221.26552281754 191.80674023038 C 226.16552281754 187.00674023038 231.06552281754 182.30674023038 236.16552281754 177.70674023038 C 240.26552281754 173.90674023038 244.46552281754 170.30674023038 248.66552281754 166.80674023038 C 256.46552281754 169.90674023038 264.06552281754 173.90674023038 271.26552281754 178.60674023038 C 279.66552281754 184.10674023038 287.66552281754 190.40674023038 295.26552281754 197.40674023038 C 302.86552281754 204.30674023038 309.96552281754 211.80674023038 316.66552281754 219.60674023038 C 320.06552281754 223.50674023038 323.26552281754 227.50674023038 326.46552281754 231.70674023038 C 329.56552281754 235.80674023038 332.66552281754 240.00674023038 335.46552281754 244.30674023038 C 335.46552281754 244.30674023038 333.86552281754 239.30674023038 328.36552281754 230.30674023038 C 325.66552281754 225.80674023038 322.76552281754 221.50674023038 319.86552281754 217.10674023038 C 313.96552281754 208.50674023038 307.46552281754 200.10674023038 300.46552281754 192.20674023038 C 293.46552281754 184.30674023038 285.86552281754 176.80674023038 277.56552281754 170.00674023038 C 269.26552281754 163.20674023038 260.06552281754 157.20674023038 250.06552281754 152.40674023038 L 250.06552281754 152.40674023038 L 246.66552281754 150.90674023038 L 243.26552281754 153.30674023038 C 237.36552281754 157.40674023038 231.76552281754 161.70674023038 226.26552281754 166.10674023038 C 220.76552281754 170.50674023038 215.36552281754 175.00674023038 210.06552281754 179.60674023038 C 199.46552281754 188.70674023038 189.06552281754 198.10674023038 178.86552281754 207.60674023038 C 168.66552281754 217.10674023038 158.56552281754 226.70674023038 148.56552281754 236.50674023038 C 143.56552281754 241.40674023038 138.56552281754 246.30674023038 133.66552281754 251.20674023038 C 128.66552281754 256.10674023038 123.86552281754 261.00674023038 118.86552281754 266.10674023038 L 106.56552281754 278.70674023038 C 106.56552281754 278.70674023038 137.86552281754 289.10674023038 175.26552281754 307.80674023038 C 191.96552281754 316.20674023038 208.36552281754 325.50674023038 223.76552281754 336.20674023038 C 239.26552281754 346.90674023038 253.46552281754 359.30674023038 267.46552281754 371.90674023038 C 286.06552281754 388.70674023038 306.26552281754 414.20674023038 306.26552281754 414.20674023038 C 304.26552281754 409.50674023038 301.86552281754 405.30674023038 299.46552281754 401.10674023038 Z"/><path fill="#a7c4e7" transform="matrix(1.5855200480315066 0 0 1.5855200480315066 -12.068311250186964 -64.05589325464683)" d="M 475.96552281754 163.10674023038 C 483.56552281754 152.70674023038 486.26552281754 144.30674023038 486.26552281754 144.30674023038 C 485.06552281754 147.00674023038 473.06552281754 150.90674023038 465.46552281754 157.20674023038 C 453.16552281754 167.50674023038 443.06552281754 183.80674023038 443.06552281754 183.80674023038 C 447.16552281754 172.60674023038 452.26552281754 162.90674023038 452.26552281754 162.90674023038 C 423.86552281754 173.60674023038 413.96552281754 205.20674023038 413.96552281754 205.20674023038 C 413.86552281754 194.80674023038 418.56552281754 176.30674023038 418.56552281754 176.30674023038 C 389.96552281754 193.40674023038 383.46552281754 228.60674023038 383.46552281754 228.60674023038 C 380.36552281754 213.00674023038 389.36552281754 194.60674023038 389.36552281754 194.60674023038 C 345.56552281754 220.20674023038 349.86552281754 274.00674023038 349.86552281754 274.00674023038 C 342.06552281754 260.30674023038 342.36552281754 249.00674023038 342.36552281754 249.00674023038 C 324.76552281754 273.90674023038 334.16552281754 312.30674023038 334.16552281754 312.30674023038 C 325.46552281754 302.20674023038 326.26552281754 287.80674023038 326.26552281754 287.80674023038 C 312.16552281754 313.60674023038 325.36552281754 344.90674023038 325.36552281754 344.90674023038 C 316.76552281754 336.10674023038 311.96552281754 321.90674023038 311.96552281754 321.90674023038 C 308.46552281754 335.30674023038 315.76552281754 349.90674023038 322.96552281754 360.30674023038 C 317.16552281754 356.70674023038 309.46552281754 354.60674023038 299.96552281754 358.10674023038 C 299.96552281754 358.10674023038 317.66552281754 358.60674023038 332.86552281754 376.10674023038 C 322.96552281754 409.30674023038 317.76552281754 427.80674023038 317.56552281754 440.20674023038 C 317.36552281754 452.80674023038 320.16552281754 471.20674023038 320.16552281754 471.20674023038 L 322.76552281754 470.40674023038 C 322.46552281754 460.80674023038 327.96552281754 452.10674023038 335.96552281754 441.40674023038 C 338.16552281754 438.40674023038 328.56552281754 444.40674023038 339.46552281754 392.90674023038 C 340.16552281754 389.50674023038 340.96552281754 386.10674023038 341.76552281754 382.70674023038 C 355.36552281754 331.10674023038 393.26552281754 220.00674023038 474.36552281754 189.80674023038 C 474.36552281754 189.80674023038 390.26552281754 223.10674023038 349.26552281754 382.80674023038 C 368.16552281754 387.20674023038 381.46552281754 380.80674023038 388.86552281754 372.70674023038 C 400.76552281754 359.70674023038 418.56552281754 361.50674023038 418.56552281754 361.50674023038 C 414.66552281754 358.50674023038 403.66552281754 354.80674023038 394.36552281754 358.60674023038 C 388.06552281754 361.20674023038 381.06552281754 356.40674023038 381.06552281754 356.40674023038 C 406.46552281754 356.40674023038 422.06552281754 327.30674023038 422.06552281754 327.30674023038 C 412.06552281754 334.10674023038 398.56552281754 332.30674023038 398.56552281754 332.30674023038 C 414.56552281754 332.60674023038 424.66552281754 320.00674023038 430.46552281754 309.70674023038 C 420.86552281754 313.60674023038 410.36552281754 311.60674023038 410.36552281754 311.60674023038 C 434.56552281754 309.50674023038 451.06552281754 277.70674023038 451.06552281754 277.70674023038 C 440.26552281754 283.30674023038 418.56552281754 280.40674023038 413.16552281754 279.50674023038 C 417.16552281754 279.50674023038 438.46552281754 279.40674023038 451.36552281754 267.10674023038 C 457.36552281754 261.40674023038 480.36552281754 235.00674023038 480.36552281754 235.00674023038 C 462.86552281754 240.60674023038 439.46552281754 235.30674023038 439.46552281754 235.30674023038 C 454.86552281754 233.10674023038 463.26552281754 237.00674023038 488.86552281754 223.60674023038 C 537.06552281754 198.20674023038 539.36552281754 135.00674023038 539.36552281754 135.00674023038 C 494.46552281754 138.70674023038 475.96552281754 163.10674023038 475.96552281754 163.10674023038 Z"/><path fill="#447abe" transform="matrix(1.5855200480315066 0 0 1.5855200480315066 -12.068311250186964 -64.05589325464683)" d="M 313.66552281754 427.90674023038 C 308.06552281754 421.80674023038 302.16552281754 415.90674023038 296.06552281754 410.30674023038 C 281.76552281754 397.10674023038 266.16552281754 385.30674023038 249.76552281754 374.70674023038 C 233.36552281754 364.10674023038 204.76552281754 347.70674023038 156.06552281754 332.30674023038 C 156.76552281754 331.20674023038 166.76552281754 317.20674023038 170.16552281754 312.20674023038 C 168.36552281754 311.30674023038 168.46552281754 311.30674023038 166.66552281754 310.50674023038 C 161.26552281754 307.90674023038 156.06552281754 305.40674023038 151.06552281754 303.20674023038 C 148.16552281754 306.80674023038 145.36552281754 310.40674023038 142.56552281754 314.00674023038 C 138.26552281754 319.50674023038 134.06552281754 325.00674023038 129.76552281754 330.60674023038 L 119.16552281754 344.60674023038 C 119.16552281754 344.60674023038 149.46552281754 349.80674023038 189.06552281754 362.90674023038 C 247.36552281754 382.10674023038 289.46552281754 413.00674023038 312.86552281754 433.50674023038 C 313.06552281754 431.70674023038 313.36552281754 429.80674023038 313.66552281754 427.90674023038 Z"/><path id="text" fill="#447abe" transform="matrix(1.2204091639652401 0 0 1.2204091639652401 -4.008304148008733 807.3977662153695)" d="M 169.44399189664 -37.88871875 C 174.88149189664 -37.88871875 179.92055439664 -37.00590625 184.56117939664 -35.24028125 C 189.20180439664 -33.47465625 193.31899189664 -31.02934375 196.91274189664 -27.90434375 L 194.28774189664 -24.43559375 C 192.85024189664 -25.65434375 191.25649189664 -26.79496875 189.50649189664 -27.85746875 C 187.75649189664 -28.91996875 185.91274189664 -29.83403125 183.97524189664 -30.59965625 C 182.03774189664 -31.36528125 180.02211689664 -31.97465625 177.92836689664 -32.42778125 C 175.83461689664 -32.88090625 173.72524189664 -33.10746875 171.60024189664 -33.10746875 C 167.03774189664 -33.10746875 162.99086689664 -32.27934375 159.45961689664 -30.62309375 C 155.92836689664 -28.96684375 152.95961689664 -26.70121875 150.55336689664 -23.82621875 C 148.14711689664 -20.95121875 146.31899189664 -17.59184375 145.06899189664 -13.74809375 C 143.81899189664 -9.90434375 143.19399189664 -5.77934375 143.19399189664 -1.37309375 C 143.19399189664 2.93940625 143.81117939664 7.00190625 145.04555439664 10.81440625 C 146.27992939664 14.62690625 148.09242939664 17.97065625 150.48305439664 20.84565625 C 152.87367939664 23.72065625 155.83461689664 25.99409375 159.36586689664 27.66596875 C 162.89711689664 29.33784375 166.94399189664 30.17378125 171.50649189664 30.17378125 C 173.69399189664 30.17378125 175.91274189664 29.95503125 178.16274189664 29.51753125 C 180.41274189664 29.08003125 182.58461689664 28.43940625 184.67836689664 27.59565625 C 186.77211689664 26.75190625 188.74867939664 25.72065625 190.60805439664 24.50190625 C 192.46742939664 23.28315625 194.11586689664 21.89253125 195.55336689664 20.33003125 L 198.22524189664 23.75190625 C 194.53774189664 27.25190625 190.25649189664 29.98628125 185.38149189664 31.95503125 C 180.50649189664 33.92378125 175.19399189664 34.90815625 169.44399189664 34.90815625 C 165.97524189664 34.90815625 162.64711689664 34.47846875 159.45961689664 33.61909375 C 156.27211689664 32.75971875 153.29555439664 31.53315625 150.52992939664 29.93940625 C 147.76430439664 28.34565625 145.24867939664 26.44721875 142.98305439664 24.24409375 C 140.71742939664 22.04096875 138.77992939664 19.59565625 137.17055439664 16.90815625 C 135.56117939664 14.22065625 134.31117939664 11.33784375 133.42055439664 8.25971875 C 132.52992939664 5.18159375 132.08461689664 1.97065625 132.08461689664 -1.37309375 C 132.08461689664 -4.71684375 132.52992939664 -7.95121875 133.42055439664 -11.07621875 C 134.31117939664 -14.20121875 135.56117939664 -17.11528125 137.17055439664 -19.81840625 C 138.77992939664 -22.52153125 140.71742939664 -24.98246875 142.98305439664 -27.20121875 C 145.24867939664 -29.41996875 147.76430439664 -31.31840625 150.52992939664 -32.89653125 C 153.29555439664 -34.47465625 156.27211689664 -35.70121875 159.45961689664 -36.57621875 C 162.64711689664 -37.45121875 165.97524189664 -37.88871875 169.44399189664 -37.88871875 Z M 225.08461689664 -11.77934375 C 228.30336689664 -11.77934375 231.31899189664 -11.17778125 234.13149189664 -9.97465625 C 236.94399189664 -8.77153125 239.38930439664 -7.13090625 241.46742939664 -5.05278125 C 243.54555439664 -2.97465625 245.17836689664 -0.53715625 246.36586689664 2.25971875 C 247.55336689664 5.05659375 248.14711689664 8.03315625 248.14711689664 11.18940625 C 248.14711689664 14.37690625 247.55336689664 17.36909375 246.36586689664 20.16596875 C 245.17836689664 22.96284375 243.54555439664 25.40034375 241.46742939664 27.47846875 C 239.38930439664 29.55659375 236.94399189664 31.19721875 234.13149189664 32.40034375 C 231.31899189664 33.60346875 228.30336689664 34.20503125 225.08461689664 34.20503125 C 221.92836689664 34.20503125 218.96742939664 33.60346875 216.20180439664 32.40034375 C 213.43617939664 31.19721875 211.02211689664 29.55659375 208.95961689664 27.47846875 C 206.89711689664 25.40034375 205.26430439664 22.96284375 204.06117939664 20.16596875 C 202.85805439664 17.36909375 202.25649189664 14.37690625 202.25649189664 11.18940625 C 202.25649189664 8.03315625 202.85805439664 5.05659375 204.06117939664 2.25971875 C 205.26430439664 -0.53715625 206.89711689664 -2.97465625 208.95961689664 -5.05278125 C 211.02211689664 -7.13090625 213.43617939664 -8.77153125 216.20180439664 -9.97465625 C 218.96742939664 -11.17778125 221.92836689664 -11.77934375 225.08461689664 -11.77934375 Z M 224.99086689664 -7.51371875 C 222.55336689664 -7.51371875 220.49867939664 -7.04496875 218.82680439664 -6.10746875 C 217.15492939664 -5.16996875 215.80336689664 -3.85746875 214.77211689664 -2.16996875 C 213.74086689664 -0.48246875 212.99867939664 1.51753125 212.54555439664 3.83003125 C 212.09242939664 6.14253125 211.86586689664 8.65815625 211.86586689664 11.37690625 C 211.86586689664 14.06440625 212.10024189664 16.54878125 212.56899189664 18.83003125 C 213.03774189664 21.11128125 213.78774189664 23.08784375 214.81899189664 24.75971875 C 215.85024189664 26.43159375 217.20180439664 27.73628125 218.87367939664 28.67378125 C 220.54555439664 29.61128125 222.58461689664 30.08003125 224.99086689664 30.08003125 C 227.39711689664 30.08003125 229.44399189664 29.61128125 231.13149189664 28.67378125 C 232.81899189664 27.73628125 234.20180439664 26.43159375 235.27992939664 24.75971875 C 236.35805439664 23.08784375 237.13930439664 21.11128125 237.62367939664 18.83003125 C 238.10805439664 16.54878125 238.35024189664 14.06440625 238.35024189664 11.37690625 C 238.35024189664 8.65815625 238.10805439664 6.14253125 237.62367939664 3.83003125 C 237.13930439664 1.51753125 236.35805439664 -0.48246875 235.27992939664 -2.16996875 C 234.20180439664 -3.85746875 232.81899189664 -5.16996875 231.13149189664 -6.10746875 C 229.44399189664 -7.04496875 227.39711689664 -7.51371875 224.99086689664 -7.51371875 Z M 282.92836689664 33.26753125 C 279.20961689664 33.26753125 275.93617939664 32.97065625 273.10805439664 32.37690625 C 270.27992939664 31.78315625 267.82680439664 30.94721875 265.74867939664 29.86909375 C 263.67055439664 28.79096875 261.93617939664 27.51753125 260.54555439664 26.04878125 C 259.15492939664 24.58003125 258.03774189664 22.96284375 257.19399189664 21.19721875 C 256.35024189664 19.43159375 255.75649189664 17.56440625 255.41274189664 15.59565625 C 255.06899189664 13.62690625 254.89711689664 11.61128125 254.89711689664 9.54878125 C 254.89711689664 6.48628125 255.35805439664 3.65034375 256.27992939664 1.04096875 C 257.20180439664 -1.56840625 258.60805439664 -3.81840625 260.49867939664 -5.70903125 C 262.38930439664 -7.59965625 264.77992939664 -9.08403125 267.67055439664 -10.16215625 C 270.56117939664 -11.24028125 273.99086689664 -11.77934375 277.95961689664 -11.77934375 C 279.52211689664 -11.77934375 281.29555439664 -11.51371875 283.27992939664 -10.98246875 C 285.26430439664 -10.45121875 287.16274189664 -9.65434375 288.97524189664 -8.59184375 L 288.97524189664 -36.43559375 L 298.49086689664 -36.43559375 L 298.49086689664 33.26753125 L 282.92836689664 33.26753125 Z M 264.41274189664 9.45503125 C 264.41274189664 10.51753125 264.48305439664 11.74409375 264.62367939664 13.13471875 C 264.76430439664 14.52534375 265.05336689664 15.96284375 265.49086689664 17.44721875 C 265.92836689664 18.93159375 266.56117939664 20.38471875 267.38930439664 21.80659375 C 268.21742939664 23.22846875 269.31117939664 24.50971875 270.67055439664 25.65034375 C 272.02992939664 26.79096875 273.71742939664 27.70503125 275.73305439664 28.39253125 C 277.74867939664 29.08003125 280.14711689664 29.42378125 282.92836689664 29.42378125 L 288.97524189664 29.42378125 L 288.97524189664 -5.12309375 C 287.47524189664 -6.02934375 285.91274189664 -6.70903125 284.28774189664 -7.16215625 C 282.66274189664 -7.61528125 280.86586689664 -7.84184375 278.89711689664 -7.84184375 C 276.58461689664 -7.84184375 274.52992939664 -7.36528125 272.73305439664 -6.41215625 C 270.93617939664 -5.45903125 269.42055439664 -4.18559375 268.18617939664 -2.59184375 C 266.95180439664 -0.99809375 266.01430439664 0.83784375 265.37367939664 2.91596875 C 264.73305439664 4.99409375 264.41274189664 7.17378125 264.41274189664 9.45503125 Z M 329.10024189664 -11.77934375 C 332.28774189664 -11.77934375 334.98305439664 -11.19340625 337.18617939664 -10.02153125 C 339.38930439664 -8.84965625 341.18617939664 -7.26371875 342.57680439664 -5.26371875 C 343.96742939664 -3.26371875 344.96742939664 -0.95903125 345.57680439664 1.65034375 C 346.18617939664 4.25971875 346.49086689664 7.01753125 346.49086689664 9.92378125 L 346.49086689664 12.12690625 L 317.61586689664 12.12690625 C 317.61586689664 13.87690625 317.89711689664 15.76753125 318.45961689664 17.79878125 C 319.02211689664 19.83003125 319.93617939664 21.70503125 321.20180439664 23.42378125 C 322.46742939664 25.14253125 324.10805439664 26.57221875 326.12367939664 27.71284375 C 328.13930439664 28.85346875 330.61586689664 29.42378125 333.55336689664 29.42378125 L 343.30336689664 29.42378125 L 343.30336689664 33.26753125 L 333.41274189664 33.26753125 C 329.03774189664 33.26753125 325.26430439664 32.76753125 322.09242939664 31.76753125 C 318.92055439664 30.76753125 316.31117939664 29.31440625 314.26430439664 27.40815625 C 312.21742939664 25.50190625 310.70961689664 23.17378125 309.74086689664 20.42378125 C 308.77211689664 17.67378125 308.28774189664 14.53315625 308.28774189664 11.00190625 C 308.28774189664 8.06440625 308.74867939664 5.22065625 309.67055439664 2.47065625 C 310.59242939664 -0.27934375 311.93617939664 -2.70903125 313.70180439664 -4.81840625 C 315.46742939664 -6.92778125 317.63930439664 -8.61528125 320.21742939664 -9.88090625 C 322.79555439664 -11.14653125 325.75649189664 -11.77934375 329.10024189664 -11.77934375 Z M 328.63149189664 -7.51371875 C 326.69399189664 -7.51371875 325.03774189664 -7.07621875 323.66274189664 -6.20121875 C 322.28774189664 -5.32621875 321.15492939664 -4.16215625 320.26430439664 -2.70903125 C 319.37367939664 -1.25590625 318.71742939664 0.43159375 318.29555439664 2.35346875 C 317.87367939664 4.27534375 317.64711689664 6.26753125 317.61586689664 8.33003125 L 337.44399189664 8.33003125 L 337.44399189664 6.31440625 C 337.38149189664 4.50190625 337.21742939664 2.76753125 336.95180439664 1.11128125 C 336.68617939664 -0.54496875 336.22524189664 -2.01371875 335.56899189664 -3.29496875 C 334.91274189664 -4.57621875 334.02992939664 -5.59965625 332.92055439664 -6.36528125 C 331.81117939664 -7.13090625 330.38149189664 -7.51371875 328.63149189664 -7.51371875 Z M 399.17836689664 -36.43559375 L 399.17836689664 -31.84184375 L 366.83461689664 -31.84184375 L 366.83461689664 -10.70121875 L 398.19399189664 -10.70121875 L 398.19399189664 -6.10746875 L 366.83461689664 -6.10746875 L 366.83461689664 33.26753125 L 356.56899189664 33.26753125 L 356.56899189664 -36.43559375 L 399.17836689664 -36.43559375 Z M 416.75649189664 33.26753125 L 407.24086689664 33.26753125 L 407.24086689664 -10.88871875 L 416.75649189664 -10.88871875 L 416.75649189664 33.26753125 Z M 416.75649189664 -18.29496875 L 407.24086689664 -18.29496875 L 407.24086689664 -23.87309375 L 416.75649189664 -23.87309375 L 416.75649189664 -18.29496875 Z M 461.14711689664 -3.48246875 C 459.52211689664 -4.79496875 457.88149189664 -5.77934375 456.22524189664 -6.43559375 C 454.56899189664 -7.09184375 452.66274189664 -7.41996875 450.50649189664 -7.41996875 C 448.16274189664 -7.41996875 446.09242939664 -6.96684375 444.29555439664 -6.06059375 C 442.49867939664 -5.15434375 440.99086689664 -3.92778125 439.77211689664 -2.38090625 C 438.55336689664 -0.83403125 437.62367939664 0.95503125 436.98305439664 2.98628125 C 436.34242939664 5.01753125 436.02211689664 7.17378125 436.02211689664 9.45503125 C 436.02211689664 10.51753125 436.09242939664 11.74409375 436.23305439664 13.13471875 C 436.37367939664 14.52534375 436.66274189664 15.96284375 437.10024189664 17.44721875 C 437.53774189664 18.93159375 438.17055439664 20.38471875 438.99867939664 21.80659375 C 439.82680439664 23.22846875 440.92055439664 24.50971875 442.27992939664 25.65034375 C 443.63930439664 26.79096875 445.32680439664 27.70503125 447.34242939664 28.39253125 C 449.35805439664 29.08003125 451.75649189664 29.42378125 454.53774189664 29.42378125 L 461.52211689664 29.42378125 L 461.52211689664 33.26753125 L 454.53774189664 33.26753125 C 450.81899189664 33.26753125 447.54555439664 32.97846875 444.71742939664 32.40034375 C 441.88930439664 31.82221875 439.43617939664 31.01753125 437.35805439664 29.98628125 C 435.27992939664 28.95503125 433.54555439664 27.71284375 432.15492939664 26.25971875 C 430.76430439664 24.80659375 429.64711689664 23.19721875 428.80336689664 21.43159375 C 427.95961689664 19.66596875 427.36586689664 17.78315625 427.02211689664 15.78315625 C 426.67836689664 13.78315625 426.50649189664 11.70503125 426.50649189664 9.54878125 C 426.50649189664 6.70503125 427.01430439664 3.99409375 428.02992939664 1.41596875 C 429.04555439664 -1.16215625 430.56117939664 -3.42778125 432.57680439664 -5.38090625 C 434.59242939664 -7.33403125 437.09242939664 -8.88871875 440.07680439664 -10.04496875 C 443.06117939664 -11.20121875 446.53774189664 -11.77934375 450.50649189664 -11.77934375 C 451.47524189664 -11.77934375 452.50649189664 -11.66996875 453.60024189664 -11.45121875 C 454.69399189664 -11.23246875 455.78774189664 -10.91215625 456.88149189664 -10.49028125 C 457.97524189664 -10.06840625 459.06117939664 -9.53715625 460.13930439664 -8.89653125 C 461.21742939664 -8.25590625 462.22524189664 -7.51371875 463.16274189664 -6.66996875 L 461.14711689664 -3.48246875 Z M 488.52211689664 -6.66996875 L 482.19399189664 -6.66996875 L 482.19399189664 33.26753125 L 473.19399189664 33.26753125 L 473.19399189664 -6.66996875 L 467.10024189664 -6.66996875 L 467.10024189664 -10.88871875 L 473.19399189664 -10.88871875 L 473.19399189664 -25.27934375 L 482.19399189664 -27.99809375 L 482.19399189664 -10.88871875 L 488.52211689664 -10.88871875 L 488.52211689664 -6.66996875 Z M 506.38149189664 33.26753125 L 496.86586689664 33.26753125 L 496.86586689664 -10.88871875 L 506.38149189664 -10.88871875 L 506.38149189664 33.26753125 Z M 506.38149189664 -18.29496875 L 496.86586689664 -18.29496875 L 496.86586689664 -23.87309375 L 506.38149189664 -23.87309375 L 506.38149189664 -18.29496875 Z M 538.72524189664 -11.77934375 C 541.94399189664 -11.77934375 544.95961689664 -11.17778125 547.77211689664 -9.97465625 C 550.58461689664 -8.77153125 553.02992939664 -7.13090625 555.10805439664 -5.05278125 C 557.18617939664 -2.97465625 558.81899189664 -0.53715625 560.00649189664 2.25971875 C 561.19399189664 5.05659375 561.78774189664 8.03315625 561.78774189664 11.18940625 C 561.78774189664 14.37690625 561.19399189664 17.36909375 560.00649189664 20.16596875 C 558.81899189664 22.96284375 557.18617939664 25.40034375 555.10805439664 27.47846875 C 553.02992939664 29.55659375 550.58461689664 31.19721875 547.77211689664 32.40034375 C 544.95961689664 33.60346875 541.94399189664 34.20503125 538.72524189664 34.20503125 C 535.56899189664 34.20503125 532.60805439664 33.60346875 529.84242939664 32.40034375 C 527.07680439664 31.19721875 524.66274189664 29.55659375 522.60024189664 27.47846875 C 520.53774189664 25.40034375 518.90492939664 22.96284375 517.70180439664 20.16596875 C 516.49867939664 17.36909375 515.89711689664 14.37690625 515.89711689664 11.18940625 C 515.89711689664 8.03315625 516.49867939664 5.05659375 517.70180439664 2.25971875 C 518.90492939664 -0.53715625 520.53774189664 -2.97465625 522.60024189664 -5.05278125 C 524.66274189664 -7.13090625 527.07680439664 -8.77153125 529.84242939664 -9.97465625 C 532.60805439664 -11.17778125 535.56899189664 -11.77934375 538.72524189664 -11.77934375 Z M 538.63149189664 -7.51371875 C 536.19399189664 -7.51371875 534.13930439664 -7.04496875 532.46742939664 -6.10746875 C 530.79555439664 -5.16996875 529.44399189664 -3.85746875 528.41274189664 -2.16996875 C 527.38149189664 -0.48246875 526.63930439664 1.51753125 526.18617939664 3.83003125 C 525.73305439664 6.14253125 525.50649189664 8.65815625 525.50649189664 11.37690625 C 525.50649189664 14.06440625 525.74086689664 16.54878125 526.20961689664 18.83003125 C 526.67836689664 21.11128125 527.42836689664 23.08784375 528.45961689664 24.75971875 C 529.49086689664 26.43159375 530.84242939664 27.73628125 532.51430439664 28.67378125 C 534.18617939664 29.61128125 536.22524189664 30.08003125 538.63149189664 30.08003125 C 541.03774189664 30.08003125 543.08461689664 29.61128125 544.77211689664 28.67378125 C 546.45961689664 27.73628125 547.84242939664 26.43159375 548.92055439664 24.75971875 C 549.99867939664 23.08784375 550.77992939664 21.11128125 551.26430439664 18.83003125 C 551.74867939664 16.54878125 551.99086689664 14.06440625 551.99086689664 11.37690625 C 551.99086689664 8.65815625 551.74867939664 6.14253125 551.26430439664 3.83003125 C 550.77992939664 1.51753125 549.99867939664 -0.48246875 548.92055439664 -2.16996875 C 547.84242939664 -3.85746875 546.45961689664 -5.16996875 544.77211689664 -6.10746875 C 543.08461689664 -7.04496875 541.03774189664 -7.51371875 538.63149189664 -7.51371875 Z M 580.81899189664 -7.23246875 C 582.81899189664 -8.10746875 584.66274189664 -8.83403125 586.35024189664 -9.41215625 C 588.03774189664 -9.99028125 589.61586689664 -10.45903125 591.08461689664 -10.81840625 C 592.55336689664 -11.17778125 593.92055439664 -11.42778125 595.18617939664 -11.56840625 C 596.45180439664 -11.70903125 597.67836689664 -11.77934375 598.86586689664 -11.77934375 C 601.80336689664 -11.77934375 604.04555439664 -11.01371875 605.59242939664 -9.48246875 C 607.13930439664 -7.95121875 607.91274189664 -5.48246875 607.91274189664 -2.07621875 L 607.91274189664 33.26753125 L 598.39711689664 33.26753125 L 598.39711689664 -0.62309375 C 598.39711689664 -1.31059375 598.32680439664 -2.01371875 598.18617939664 -2.73246875 C 598.04555439664 -3.45121875 597.78774189664 -4.09184375 597.41274189664 -4.65434375 C 597.03774189664 -5.21684375 596.52992939664 -5.67778125 595.88930439664 -6.03715625 C 595.24867939664 -6.39653125 594.44399189664 -6.57621875 593.47524189664 -6.57621875 C 591.88149189664 -6.57621875 590.03774189664 -6.38090625 587.94399189664 -5.99028125 C 585.85024189664 -5.59965625 583.47524189664 -4.79496875 580.81899189664 -3.57621875 L 580.81899189664 33.26753125 L 571.30336689664 33.26753125 L 571.30336689664 -10.88871875 L 580.81899189664 -10.88871875 L 580.81899189664 -7.23246875 Z M 629.75649189664 33.26753125 L 620.24086689664 33.26753125 L 620.24086689664 -10.88871875 L 629.75649189664 -10.88871875 L 629.75649189664 33.26753125 Z M 629.75649189664 -18.29496875 L 620.24086689664 -18.29496875 L 620.24086689664 -23.87309375 L 629.75649189664 -23.87309375 L 629.75649189664 -18.29496875 Z M 653.94399189664 -11.77934375 C 655.25649189664 -11.77934375 656.39711689664 -11.72465625 657.36586689664 -11.61528125 C 658.33461689664 -11.50590625 659.24867939664 -11.34184375 660.10805439664 -11.12309375 C 660.96742939664 -10.90434375 661.81899189664 -10.65434375 662.66274189664 -10.37309375 C 663.50649189664 -10.09184375 664.44399189664 -9.77934375 665.47524189664 -9.43559375 L 665.38149189664 -5.31059375 C 663.91274189664 -5.84184375 662.35805439664 -6.31059375 660.71742939664 -6.71684375 C 659.07680439664 -7.12309375 657.14711689664 -7.32621875 654.92836689664 -7.32621875 C 654.45961689664 -7.32621875 653.89711689664 -7.26371875 653.24086689664 -7.13871875 C 652.58461689664 -7.01371875 651.95961689664 -6.80278125 651.36586689664 -6.50590625 C 650.77211689664 -6.20903125 650.27211689664 -5.81059375 649.86586689664 -5.31059375 C 649.45961689664 -4.81059375 649.25649189664 -4.20121875 649.25649189664 -3.48246875 C 649.25649189664 -2.66996875 649.62367939664 -1.68559375 650.35805439664 -0.52934375 C 651.09242939664 0.62690625 652.25649189664 2.06440625 653.85024189664 3.78315625 L 658.86586689664 9.45503125 C 659.92836689664 10.67378125 660.98305439664 11.85346875 662.02992939664 12.99409375 C 663.07680439664 14.13471875 664.00649189664 15.25190625 664.81899189664 16.34565625 C 665.63149189664 17.43940625 666.29555439664 18.52534375 666.81117939664 19.60346875 C 667.32680439664 20.68159375 667.58461689664 21.75190625 667.58461689664 22.81440625 C 667.58461689664 24.87690625 667.11586689664 26.62690625 666.17836689664 28.06440625 C 665.24086689664 29.50190625 664.02211689664 30.68159375 662.52211689664 31.60346875 C 661.02211689664 32.52534375 659.32680439664 33.18940625 657.43617939664 33.59565625 C 655.54555439664 34.00190625 653.64711689664 34.20503125 651.74086689664 34.20503125 C 649.08461689664 34.20503125 646.73305439664 33.91596875 644.68617939664 33.33784375 C 642.63930439664 32.75971875 640.70961689664 31.93940625 638.89711689664 30.87690625 L 639.27211689664 26.65815625 C 640.70961689664 27.40815625 642.27211689664 28.10346875 643.95961689664 28.74409375 C 645.64711689664 29.38471875 647.38149189664 29.70503125 649.16274189664 29.70503125 C 652.10024189664 29.70503125 654.30336689664 29.18940625 655.77211689664 28.15815625 C 657.24086689664 27.12690625 657.97524189664 25.62690625 657.97524189664 23.65815625 C 657.97524189664 22.28315625 657.40492939664 20.84565625 656.26430439664 19.34565625 C 655.12367939664 17.84565625 653.70961689664 16.18940625 652.02211689664 14.37690625 L 647.05336689664 8.79878125 C 645.74086689664 7.14253125 644.62367939664 5.75190625 643.70180439664 4.62690625 C 642.77992939664 3.50190625 642.03774189664 2.50190625 641.47524189664 1.62690625 C 640.91274189664 0.75190625 640.49867939664 -0.07621875 640.23305439664 -0.85746875 C 639.96742939664 -1.63871875 639.83461689664 -2.51371875 639.83461689664 -3.48246875 C 639.83461689664 -5.07621875 640.20180439664 -6.40434375 640.93617939664 -7.46684375 C 641.67055439664 -8.52934375 642.67055439664 -9.38090625 643.93617939664 -10.02153125 C 645.20180439664 -10.66215625 646.69399189664 -11.11528125 648.41274189664 -11.38090625 C 650.13149189664 -11.64653125 651.97524189664 -11.77934375 653.94399189664 -11.77934375 Z M 693.88149189664 -6.66996875 L 687.55336689664 -6.66996875 L 687.55336689664 33.26753125 L 678.55336689664 33.26753125 L 678.55336689664 -6.66996875 L 672.45961689664 -6.66996875 L 672.45961689664 -10.88871875 L 678.55336689664 -10.88871875 L 678.55336689664 -25.27934375 L 687.55336689664 -27.99809375 L 687.55336689664 -10.88871875 L 693.88149189664 -10.88871875 L 693.88149189664 -6.66996875 Z"/></svg>